<?xml version="1.0" encoding="UTF-8"?>
<!DOCTYPE svg PUBLIC "-//W3C//DTD SVG 1.1//EN" "http://www.w3.org/Graphics/SVG/1.1/DTD/svg11.dtd">
<!-- Creator: CorelDRAW X7 -->
<svg xmlns="http://www.w3.org/2000/svg" xml:space="preserve" width="250mm" height="100mm" version="1.1" style="shape-rendering:geometricPrecision; text-rendering:geometricPrecision; image-rendering:optimizeQuality; fill-rule:evenodd; clip-rule:evenodd"
viewBox="0 0 25000 10000"
 xmlns:xlink="http://www.w3.org/1999/xlink">
 <defs>
  <style type="text/css">
   <![CDATA[
    .str0 {stroke:#01ADEF;stroke-width:42.33}
    .fil1 {fill:none}
    .fil5 {fill:#FEFEFE}
    .fil4 {fill:#01ADEF}
    .fil2 {fill:#303092}
    .fil3 {fill:#FEFEFE;fill-rule:nonzero}
    .fil0 {fill:#303092;fill-rule:nonzero}
   ]]>
  </style>
 </defs>
 <g id="Layer_x0020_1">
  <metadata id="CorelCorpID_0Corel-Layer"/>
  <path class="fil0" d="M9605 3452l-285 113c-40,-134 -115,-201 -223,-201 -51,0 -91,15 -121,44 -29,30 -44,64 -44,104 0,46 17,82 52,110 35,27 108,63 220,107 101,39 180,78 238,115 58,38 105,90 141,155 35,65 53,141 53,227 0,151 -50,275 -151,372 -101,97 -236,145 -406,145 -284,0 -466,-148 -545,-445l301 -89c38,164 122,245 254,245 61,0 109,-16 147,-48 37,-32 56,-74 56,-126 0,-40 -13,-75 -39,-107 -26,-31 -86,-64 -181,-98 -120,-45 -211,-85 -270,-121 -59,-36 -108,-88 -147,-154 -38,-67 -57,-143 -57,-229 0,-145 45,-264 136,-357 91,-93 211,-140 360,-140 274,0 444,126 511,378zm243 -353l493 0c95,0 169,4 220,13 51,9 102,34 154,74 52,40 93,95 122,164 30,69 45,147 45,233 0,202 -74,345 -220,427l288 709 -373 0 -210 -641 -175 0 0 641 -344 0 0 -1620zm344 262l0 454 151 0c135,0 202,-77 202,-233 0,-54 -10,-98 -30,-133 -20,-34 -43,-57 -69,-70 -26,-12 -65,-18 -116,-18l-138 0zm939 -262l344 0 0 1620 -344 0 0 -1620zm1081 0l506 0 222 1001 250 -1001 491 0 0 1620 -322 0 0 -1357 -322 1357 -251 0 -294 -1357 0 1357 -280 0 0 -1620zm2040 0l348 0 448 1620 -353 0 -78 -335 -441 0 -78 335 -317 0 471 -1620zm300 1008l-158 -664 -153 664 311 0zm616 -1008l382 0 405 1006 0 -1006 266 0 0 1620 -308 0 -479 -1173 0 1173 -266 0 0 -1620zm1465 0l343 0 0 1075c0,137 -9,244 -29,320 -19,76 -60,137 -121,182 -62,45 -152,67 -273,67 -52,0 -122,-8 -210,-25l0 -298c55,12 102,17 140,17 61,0 101,-17 120,-50 20,-34 30,-105 30,-213l0 -1075zm632 0l344 0 0 926c0,130 6,221 17,273 12,51 35,90 72,117 36,26 81,39 134,39 57,0 103,-14 137,-43 33,-30 54,-69 62,-117 7,-48 11,-138 11,-269l0 -926 290 0 0 911c0,182 -11,318 -31,407 -20,90 -72,166 -155,231 -83,63 -197,95 -343,95 -136,0 -244,-23 -322,-70 -78,-47 -133,-113 -166,-198 -33,-85 -50,-236 -50,-451l0 -925zm1352 0l382 0 404 1006 0 -1006 266 0 0 1620 -307 0 -479 -1173 0 1173 -266 0 0 -1620zm1655 0l348 0 448 1620 -353 0 -78 -335 -442 0 -77 335 -317 0 471 -1620zm300 1008l-158 -664 -153 664 311 0zm409 -1008l977 0 0 301 -320 0 0 1319 -344 0 0 -1319 -313 0 0 -301zm1099 0l343 0 0 653 380 0 0 -653 343 0 0 1620 -343 0 0 -666 -380 0 0 666 -343 0 0 -1620zm1639 0l347 0 449 1620 -353 0 -78 -335 -442 0 -77 335 -317 0 471 -1620zm300 1008l-159 -664 -152 664 311 0zm-13115 1174l343 0 0 653 379 0 0 -653 344 0 0 1620 -344 0 0 -665 -379 0 0 665 -343 0 0 -1620zm1639 0l347 0 448 1620 -352 0 -79 -335 -441 0 -77 335 -317 0 471 -1620zm300 1008l-159 -664 -152 664 311 0zm409 -1008l977 0 0 301 -321 0 0 1319 -343 0 0 -1319 -313 0 0 -301zm1877 1030l318 20c-11,176 -66,319 -162,429 -97,111 -224,166 -382,166 -193,0 -340,-75 -442,-222 -101,-148 -151,-352 -151,-611 0,-262 50,-467 151,-615 100,-147 249,-221 447,-221 327,0 505,208 534,627l-315 24c-8,-242 -81,-362 -219,-362 -72,0 -129,39 -172,116 -42,78 -64,228 -64,451 0,200 20,336 59,411 39,75 98,112 176,112 126,0 200,-108 222,-325zm521 -1030l344 0 0 653 379 0 0 -653 344 0 0 1620 -344 0 0 -665 -379 0 0 665 -344 0 0 -1620zm1364 0l953 0 0 277 -609 0 0 376 473 0 0 277 -473 0 0 401 609 0 0 289 -953 0 0 -1620zm1123 0l493 0c95,0 168,4 219,14 51,9 103,33 155,73 52,40 93,95 122,164 29,69 44,147 44,233 0,203 -73,345 -220,427l289 709 -373 0 -210 -641 -175 0 0 641 -344 0 0 -1620zm344 262l0 455 151 0c135,0 202,-78 202,-234 0,-54 -10,-98 -30,-133 -20,-34 -43,-57 -70,-70 -26,-12 -65,-18 -116,-18l-137 0zm939 -262l344 0 0 1620 -344 0 0 -1620zm642 0l953 0 0 277 -610 0 0 376 473 0 0 277 -473 0 0 401 610 0 0 289 -953 0 0 -1620zm2083 353l-285 113c-41,-134 -115,-201 -223,-201 -51,0 -91,15 -121,44 -29,30 -44,65 -44,104 0,46 17,82 52,110 35,27 108,63 219,107 102,39 181,78 239,115 58,38 105,90 140,155 36,66 54,141 54,228 0,151 -51,274 -151,371 -101,97 -237,146 -406,146 -285,0 -466,-149 -545,-446l301 -89c37,164 122,245 254,245 61,0 109,-16 147,-48 37,-32 56,-74 56,-126 0,-40 -13,-75 -39,-107 -27,-31 -87,-63 -181,-98 -121,-45 -211,-85 -270,-121 -59,-36 -108,-87 -147,-154 -38,-67 -58,-143 -58,-229 0,-145 46,-264 137,-357 91,-93 211,-139 360,-139 273,0 444,125 511,377z"/>
  <g id="_2049047258400">
   <g>
    <path class="fil1 str0" d="M4263 1356c2013,0 3644,1631 3644,3644 0,2013 -1631,3644 -3644,3644 -2012,0 -3644,-1631 -3644,-3644 0,-2013 1632,-3644 3644,-3644z"/>
    <path id="1" class="fil2" d="M4263 1356c2013,0 3644,1631 3644,3644 0,2013 -1631,3644 -3644,3644 -2012,0 -3644,-1631 -3644,-3644 0,-2013 1632,-3644 3644,-3644z"/>
   </g>
   <path class="fil1" d="M4261 2207c1553,0 2812,1226 2812,2739 0,1512 -1259,2738 -2812,2738 -1553,0 -2812,-1226 -2812,-2738 0,-1513 1259,-2739 2812,-2739z"/>
   <path class="fil3" d="M1013 5314l59 99c-45,24 -63,56 -56,96 4,19 12,33 24,42 12,9 26,12 40,10 16,-3 27,-12 35,-27 7,-15 14,-44 22,-88 7,-40 15,-73 24,-96 10,-24 25,-45 45,-63 21,-17 46,-29 76,-34 53,-10 100,1 141,32 41,31 67,79 79,142 19,106 -21,183 -119,231l-52 -106c55,-25 78,-61 69,-110 -5,-23 -14,-40 -27,-52 -14,-12 -30,-16 -49,-13 -13,3 -25,10 -34,22 -9,12 -17,36 -23,73 -7,48 -15,84 -24,109 -8,24 -23,45 -44,64 -20,19 -46,31 -76,36 -51,10 -96,0 -135,-27 -38,-28 -63,-70 -73,-126 -19,-101 14,-173 98,-214zm-137 -134l-4 -186c-1,-36 -1,-64 2,-84 3,-19 11,-39 25,-59 14,-20 33,-36 57,-47 25,-12 52,-18 83,-19 72,-2 124,24 155,79l250 -116 3 141 -226 86 1 66 229 -6 3 130 -578 15zm91 -132l162 -5 -2 -57c-1,-51 -29,-75 -85,-74 -19,1 -35,5 -47,13 -12,7 -20,16 -24,26 -4,11 -6,25 -6,45l2 52zm-82 -418l17 -129 573 75 -17 129 -573 -75zm97 -552l62 -181 365 38 -306 -206 61 -176 546 190 -40 115 -457 -159 417 274 -31 90 -494 -54 458 159 -35 100 -546 -190zm354 -814l72 -110 577 176 -74 112 -116 -41 -92 139 84 90 -66 100 -385 -466zm363 103l-231 -80 166 178 65 -98zm-136 -440l96 -108 370 125 -268 -239 66 -75 433 384 -78 87 -433 -143 313 279 -67 75 -432 -385zm423 -441l99 -84 248 294c31,37 53,69 65,94 12,26 14,52 7,79 -8,28 -29,56 -64,85 -15,13 -37,28 -66,45l-69 -82c19,-10 34,-20 45,-29 17,-15 25,-29 23,-43 -2,-14 -16,-36 -41,-66l-247 -293zm207 -171l107 -74 188 271c27,38 47,64 61,77 14,12 30,18 46,18 17,0 34,-5 50,-17 18,-12 29,-26 34,-42 4,-16 3,-32 -5,-48 -7,-15 -24,-43 -51,-81l-188 -272 90 -62 185 267c37,54 62,96 73,126 12,31 12,64 -1,101 -13,37 -42,71 -87,102 -43,30 -81,46 -114,49 -35,3 -65,-5 -93,-22 -27,-18 -63,-59 -107,-122l-188 -271zm505 -318l133 -59 284 268 -144 -329 92 -41 233 530 -107 46 -334 -310 168 383 -92 41 -233 -529zm640 -243l127 -35 317 513 -128 35 -61 -107 -161 44 4 123 -115 32 17 -605zm205 317l-121 -212 8 243 113 -31zm114 -393l367 -45 13 106 -120 15 58 467 -129 16 -58 -467 -118 15 -13 -107zm474 -52l130 3 -6 233 143 4 6 -234 130 4 -14 578 -130 -3 6 -238 -144 -3 -5 237 -130 -3 14 -578zm678 47l129 22 68 599 -131 -23 -9 -123 -164 -28 -50 113 -118 -21 275 -539zm50 374l-19 -244 -97 224 116 20zm618 -203l119 53 -94 213 131 58 94 -214 119 53 -233 529 -119 -52 96 -218 -131 -57 -96 217 -119 -52 233 -530zm605 305l111 69 -162 581 -113 -71 38 -117 -142 -89 -88 86 -102 -63 458 -396zm-95 365l75 -233 -174 171 99 62zm365 -183l282 238 -69 82 -93 -78 -303 360 -100 -84 304 -359 -91 -77 70 -82zm276 778l74 94c-49,39 -101,57 -155,56 -53,-1 -100,-24 -140,-69 -49,-54 -66,-113 -52,-177 14,-63 56,-126 125,-188 70,-62 137,-96 202,-103 64,-6 122,18 171,74 83,93 72,192 -33,300l-85 -84c62,-59 76,-108 41,-147 -18,-21 -43,-28 -74,-21 -31,6 -77,36 -136,89 -53,47 -85,85 -95,114 -10,29 -5,54 14,76 32,36 79,31 143,-14zm451 -21l66 112 -201 119 73 123 201 -119 66 112 -498 294 -66 -111 204 -121 -73 -124 -204 121 -66 -112 498 -294zm280 504l135 334 -91 37 -87 -213 -124 50 67 166 -92 37 -67 -166 -133 54 87 214 -96 38 -135 -334 536 -217zm169 457l43 182c9,35 13,62 15,82 1,19 -3,40 -12,63 -10,22 -25,42 -47,58 -21,17 -47,28 -77,36 -70,16 -126,1 -167,-46l-221 164 -33 -137 205 -130 -16 -65 -222 53 -30 -126 562 -134zm-61 148l-158 38 14 56c11,49 44,67 98,55 19,-5 33,-12 44,-22 10,-11 16,-21 18,-32 2,-10 1,-25 -4,-44l-12 -51zm165 392l10 129 -576 45 -10 -129 576 -45zm21 277l-9 361 -99 -3 6 -231 -134 -3 -5 179 -99 -3 5 -179 -143 -3 -6 230 -103 -2 9 -361 578 15zm-213 824l-20 -113c50,-7 78,-30 86,-71 3,-18 1,-34 -8,-47 -8,-13 -19,-21 -33,-23 -16,-3 -30,1 -42,12 -12,11 -30,36 -53,75 -20,35 -39,62 -56,81 -18,19 -39,33 -64,42 -26,9 -54,11 -84,5 -53,-9 -93,-36 -120,-80 -27,-43 -35,-97 -23,-160 19,-106 84,-164 193,-174l11 118c-60,3 -95,29 -104,78 -4,23 -1,42 7,58 9,16 23,26 41,29 14,3 27,0 40,-8 13,-7 28,-28 47,-60 24,-42 44,-73 61,-93 16,-20 38,-35 64,-45 26,-10 54,-12 84,-7 51,10 90,34 116,74 27,40 35,88 24,143 -18,102 -74,157 -167,166z"/>
   <path class="fil4" d="M4263 2446c1411,0 2555,1143 2555,2554 0,1411 -1144,2554 -2555,2554 -1411,0 -2554,-1143 -2554,-2554 0,-1411 1143,-2554 2554,-2554z"/>
   <path class="fil5" d="M4230 2929l180 1505c0,0 -170,181 -45,433 0,0 267,234 443,-100 0,0 85,-134 -79,-549 0,0 -393,-813 85,-1246 0,0 -319,678 79,1187 398,509 290,1257 -511,1088 0,0 -57,0 -57,99l0 626 -95 0 0 -3043z"/>
   <path class="fil5" d="M4242 2929l-181 1505c0,0 171,181 46,433 0,0 -267,234 -444,-100 0,0 -85,-134 80,-549 0,0 392,-813 -85,-1246 0,0 318,678 -80,1187 -398,509 -290,1257 512,1088 0,0 57,0 57,99l0 626 95 0 0 -3043z"/>
   <path class="fil3" d="M2633 6046c-72,-35 -131,-78 -174,-128 -44,-50 -66,-110 -66,-179 0,-56 11,-104 34,-144 23,-39 54,-72 94,-98 39,-26 85,-45 137,-58 53,-12 108,-18 167,-18 88,0 160,9 216,27 56,19 100,41 132,66 32,25 54,51 66,78 13,26 19,47 19,63 0,36 -15,65 -45,88 -31,23 -69,35 -116,35 -23,0 -43,-3 -59,-8 -16,-5 -30,-12 -42,-21 -11,-9 -22,-19 -31,-30 -9,-12 -18,-24 -27,-37 -13,-19 -30,-38 -49,-57 -19,-19 -43,-28 -73,-28 -22,0 -40,7 -53,20 -12,13 -19,32 -19,55 0,16 3,31 9,42 6,12 18,23 34,35 16,12 37,25 65,38 28,14 64,31 108,52 41,19 82,38 122,59 41,20 77,44 108,71 32,28 57,60 77,97 20,38 30,82 30,134 0,69 -16,125 -48,167 -32,43 -72,77 -120,100 -47,24 -98,40 -151,49 -54,8 -103,13 -147,13 -81,0 -151,-10 -209,-28 -58,-18 -105,-42 -140,-69 -36,-28 -62,-59 -79,-92 -16,-34 -25,-65 -25,-94 0,-23 6,-44 17,-60 11,-16 24,-30 41,-40 16,-11 33,-18 51,-23 19,-4 36,-6 52,-6 28,0 53,4 73,12 20,9 38,19 54,32 15,13 28,27 38,43 11,15 21,30 31,45 12,22 28,42 46,59 19,17 43,25 72,25 20,0 37,-6 53,-17 15,-12 23,-29 23,-52 0,-19 -6,-37 -17,-56 -11,-18 -35,-38 -72,-60 -4,-2 -10,-5 -20,-10 -10,-4 -20,-9 -32,-15 -11,-5 -21,-10 -31,-15 -10,-5 -17,-9 -20,-11l-104 -51z"/>
   <path class="fil5" d="M4861 5405c0,0 216,-69 250,102 0,0 205,398 -91,1012 0,0 -432,34 -500,-535l-227 307 -137 0 -250 -341c0,0 -68,603 -409,603 0,0 -330,-455 -91,-1069 0,0 57,-136 216,-79 159,56 637,537 637,537l602 -537z"/>
   <path class="fil3" d="M5811 6076l-211 0 0 396c0,16 -3,27 -10,32 -7,6 -19,9 -36,9l-263 0c-17,0 -29,-3 -38,-7 -9,-5 -13,-16 -13,-34l0 -973c0,-26 15,-40 44,-41l267 0c13,0 25,3 35,7 9,4 14,16 14,33l0 372 211 0 0 -372c0,-12 2,-22 7,-29 4,-7 16,-11 36,-11l272 0c18,0 30,3 37,7 8,4 11,15 11,32l0 975c0,17 -3,28 -11,33 -7,5 -19,8 -35,8l-272 0c-21,0 -34,-4 -38,-10 -5,-7 -7,-17 -7,-31l0 -396z"/>
   <polygon class="fil5" points="4099,5368 4179,5368 4179,5544 4099,5544 "/>
   <polygon class="fil5" points="4287,5419 4361,5419 4361,5544 4287,5544 "/>
   <path class="fil3" d="M2173 7554l-66 -74 51 -98 -122 -137 -102 41 -65 -73 458 -171 65 73 -219 439zm23 -246l83 -160 -167 67 84 93zm46 293l288 -348 72 59 -239 289 176 145 -49 60 -248 -205zm683 472l-85 -51 20 -109 -157 -95 -86 70 -84 -51 387 -299 84 50 -79 485zm-51 -242l33 -177 -140 113 107 64zm391 192l26 -73 186 68 -62 171c-24,11 -56,17 -95,18 -39,1 -77,-5 -112,-18 -45,-16 -80,-40 -107,-71 -26,-31 -42,-67 -46,-108 -4,-41 2,-82 17,-123 16,-45 40,-81 71,-110 31,-27 68,-44 111,-50 33,-4 69,1 110,16 54,19 91,46 113,79 22,33 30,71 24,113l-92 -15c2,-23 -4,-44 -16,-62 -12,-18 -31,-32 -56,-41 -37,-13 -72,-12 -103,4 -31,16 -55,47 -72,94 -18,51 -21,94 -8,127 14,34 39,57 75,71 18,6 38,9 59,9 20,-1 39,-4 56,-9l20 -55 -99 -35zm646 333l-97 -20 -18 -109 -179 -37 -58 94 -95 -20 265 -411 96 20 86 483zm-128 -211l-28 -178 -95 153 123 25zm277 212l11 -192 -150 -274 107 7 97 187 116 -174 105 6 -183 254 -11 191 -92 -5zm691 -23l-99 8 -48 -100 -182 15 -29 107 -98 8 139 -469 97 -8 220 439zm-183 -166l-77 -163 -48 173 125 -10zm268 149l-104 -444 144 -34c55,-12 91,-18 108,-18 27,1 52,11 74,29 23,18 38,45 46,81 6,27 7,51 1,72 -5,21 -14,38 -27,52 -13,14 -27,25 -42,32 -20,9 -50,19 -91,28l-58 14 39 167 -90 21zm4 -390l29 127 49 -12c35,-8 58,-16 69,-23 11,-8 19,-17 23,-29 4,-11 5,-23 2,-37 -4,-16 -12,-28 -24,-36 -11,-9 -25,-13 -40,-12 -11,1 -33,5 -65,12l-43 10zm776 137l-93 36 -75 -82 -170 68 3 110 -91 36 -2 -489 90 -36 338 357zm-224 -106l-121 -134 5 180 116 -46zm298 58l-227 -390 79 -47 189 324 197 -115 39 67 -277 161zm354 -227l-286 -355 263 -212 48 60 -191 154 64 79 177 -143 49 60 -178 143 78 96 197 -159 49 60 -270 217zm353 -291l-337 -307 94 -102 284 149 -175 -269 94 -102 336 307 -57 63 -265 -242 204 309 -60 65 -325 -176 264 242 -57 63z"/>
   <path class="fil5" d="M1265 6362c9,6 21,15 30,22 5,3 10,7 15,11l30 21c3,2 5,4 8,6l22 16c5,4 10,7 15,11l-46 140c2,0 20,-14 23,-16l37 -27c1,-1 58,-42 60,-43l52 38c3,1 5,3 8,5l52 38c1,1 6,5 8,5l-46 -140 15 -11c15,-10 30,-22 45,-32l29 -22c10,-7 22,-16 30,-22 -3,-1 -14,0 -18,0 -43,0 -86,0 -129,0 -1,-3 -2,-6 -3,-9 -1,-3 -2,-6 -3,-9l-28 -87c-2,-4 -11,-34 -12,-35 -1,1 -10,31 -12,35l-28 87c-1,3 -2,6 -3,9 -1,3 -2,6 -3,9 -24,0 -49,0 -74,0 -5,0 -70,0 -74,0z"/>
   <path class="fil5" d="M6832 6362c8,6 21,15 30,22 5,3 10,7 15,11l30 21c2,2 5,4 7,6l23 16c5,4 10,7 15,11l-46 140c2,0 20,-14 23,-16l37 -27c1,-1 58,-42 60,-43l52 38c3,1 5,3 7,5l53 38c1,1 6,5 7,5l-45 -140 15 -11c14,-10 30,-22 44,-32l30 -22c9,-7 21,-16 30,-22 -4,-1 -14,0 -18,0 -43,0 -86,0 -129,0 -1,-3 -2,-6 -3,-9 -1,-3 -2,-6 -3,-9l-29 -87c-1,-4 -10,-34 -11,-35 -1,1 -10,31 -12,35l-28 87c-1,3 -2,6 -3,9 -1,3 -2,6 -3,9 -25,0 -49,0 -74,0 -5,0 -71,0 -74,0z"/>
  </g>
 </g>
</svg>
